# xmcd
#
# Track frame offsets:
# 150
# 23170
# 87993
# 119900
# 138265
# 246251
# 288867
# 303662
#
# Disc length: 4682 seconds
#
# Revision: 0
# Processed by: cddbd v1.5.1PL0 Copyright (c) Steve Scherf et al.
# Submitted via: Audion 3.0.2 (http://www.panic.com/audion/)
#
DISCID=71124808
DTITLE=Phish - Live Phish #17
DYEAR=1900
DGENRE=
TTITLE0=Meat
TTITLE1=Harry Hood
TTITLE2=Wilson
TTITLE3=Tweezer Reprise
TTITLE4=Bathtub Gin
TTITLE5=Wolfman's Brother
TTITLE6=HAH
TTITLE7=As
EXTD=
EXTT0=
EXTT1=
EXTT2=
EXTT3=
EXTT4=
EXTT5=
EXTT6=
EXTT7=
PLAYORDER=
